<?xml version="1.0" ?><!DOCTYPE svg  PUBLIC '-//W3C//DTD SVG 1.1//EN'  'http://www.w3.org/Graphics/SVG/1.1/DTD/svg11.dtd'><svg enable-background="new 0 0 100 100" id="Layer_1" version="1.1" viewBox="0 0 100 100" xml:space="preserve" xmlns="http://www.w3.org/2000/svg" xmlns:xlink="http://www.w3.org/1999/xlink"><g><path d="M44.633,21.495c0,0,0.12-1.82,0.268-2.399c0.148-0.579,2.431-1.049,5.099-1.049   c2.668,0,4.951,0.469,5.099,1.049l0.268,2.399H44.633z" fill="#656565"/><path d="M44.101,31.593c0.786,0.069,1.605,0.128,2.474,0.169c0.791-1.207,2.024-1.998,3.426-1.998   c1.402,0,2.635,0.791,3.426,1.998c0.869-0.042,1.688-0.101,2.473-0.169c-0.657-4.033-1.195-5.715-1.195-6.065   c0-0.809,1.126-1.126,1.126-1.795c0-0.669-1.021-1.197-1.021-1.936c0-0.739,0.035-2.569-0.457-3.027h-8.703   c-0.493,0.458-0.458,2.288-0.458,3.027c0,0.739-1.02,1.267-1.02,1.936c0,0.669,1.126,0.985,1.126,1.795   C45.297,25.878,44.758,27.561,44.101,31.593z" fill="#656565"/><path d="M58.153,42.637c-0.203-0.864-0.71-1.83-1.274-5.15c-1.178,0.107-2.312,0.183-3.338,0.229   c-0.783,1.304-2.074,2.161-3.54,2.161c-1.467,0-2.758-0.857-3.541-2.161c-1.026-0.046-2.16-0.122-3.338-0.229   c-0.564,3.32-1.07,4.287-1.274,5.15c-0.563,2.393-3.801,3.801-3.801,8.517v27.799c2.827,2.827,9.035,3.007,11.953,3   c2.918,0.006,9.127-0.174,11.953-3V51.154C61.953,46.438,58.715,45.03,58.153,42.637z M59.226,70.65   c-2.721,1.51-7.037,1.626-9.227,1.621c-2.194,0.005-6.521-0.111-9.241-1.627V55.56c2.72,0.884,7.047,0.951,9.241,0.949   c2.191,0.003,6.506-0.065,9.227-0.945V70.65z" fill="#656565"/></g></svg>