<?xml version="1.0" ?><!DOCTYPE svg  PUBLIC '-//W3C//DTD SVG 1.1//EN'  'http://www.w3.org/Graphics/SVG/1.1/DTD/svg11.dtd'><svg enable-background="new 0 0 100 100" id="Layer_1" version="1.1" viewBox="0 0 100 100" xml:space="preserve" xmlns="http://www.w3.org/2000/svg" xmlns:xlink="http://www.w3.org/1999/xlink"><g><path d="M44.959,27.037c2.304,0,4.172-0.709,4.172-1.583c0-0.874-1.868-1.583-4.172-1.583   c-2.304,0-4.172,0.709-4.172,1.583C40.787,26.328,42.655,27.037,44.959,27.037z M65.134,27.19v-2.13   c0-3.054-6.776-5.53-15.134-5.53c-8.358,0-15.134,2.476-15.134,5.53v2.13c0,0-3.033,5.582-3.033,5.755l0,37.823   c0,1.63,0.898,2.257,2.457,3.572v0.88c0,2.9,7.033,5.251,15.71,5.251c8.676,0,15.71-2.351,15.71-5.251v-0.88   c1.56-1.315,2.457-1.941,2.457-3.572l0-37.823C68.167,32.771,65.134,27.19,65.134,27.19z M49.849,21.645   c6.541,0,11.844,1.757,11.844,3.923s-5.303,3.923-11.844,3.923c-6.541,0-11.844-1.757-11.844-3.923S43.307,21.645,49.849,21.645z    M49.89,76.612c-9.895,0-17.917-2.537-17.917-5.667c0-0.301,0.096-0.593,0.238-0.882c1.342,2.71,8.734,4.785,17.678,4.785   c8.945,0,16.337-2.075,17.678-4.785c0.143,0.288,0.238,0.581,0.238,0.882C67.807,74.075,59.785,76.612,49.89,76.612z M49.89,40.072   c-9.895,0-17.917-2.537-17.917-5.667c0-0.301,0.096-0.594,0.238-0.882c1.342,2.71,8.734,4.785,17.678,4.785   c8.945,0,16.337-2.075,17.678-4.785c0.143,0.288,0.238,0.581,0.238,0.882C67.807,37.535,59.785,40.072,49.89,40.072z" fill="#656565"/></g></svg>